<svg xmlns="http://www.w3.org/2000/svg" viewBox="0 0 576 576">
  <path fill="#d41c5c" d="M220.13,562.05c-31.58-8.14-50.57-70.79-34.02-115.95-4.4-5.03-7.55-4.05-11.26,1.76-14.97,23.51-30.3,46.72-47,72.34,3.97-21.32,10.11-38.82,18.54-55.12,4.73-9.16,10.53-17.64,16.36-25.95,3.59-5.12,4.27-8.84-2.09-12.89-29.48,33.22-62.65,61.22-99.75,83.16,22.69-37.69,47.4-72.96,84.05-94.24.07-.97.14-1.94.21-2.9-2.94-.88-5.89-2.57-8.81-2.49-19.32.53-38.2-1.75-56.16-10.56-26.29-12.9-46.94-41.19-51.59-72.25,3.99,3.5,6.87,6.11,9.83,8.62,19.05,16.17,37.99,32.67,60.86,41.17,5.24,1.95,11.08,3.09,16.49,2.53,3-.31,6.42-4.4,8.1-7.81.67-1.37-2.25-6.5-4.5-8.19-20.9-15.68-38.23-35.08-50.21-60.67-1.68-3.6-5.27-6.95-8.62-8.41-28.16-12.28-41.39-37.8-48.44-69.84-14.46-65.69-.24-123.28,37.83-172.83,10.86-14.14,26.75-23.18,40.55-34.19,2.56-2.04,6.16-2.33,9.14-3.38-6.7,18.49-14.27,35.93-19.39,54.28-9.93,35.64-9.35,71.1,5.71,105.21.89,2.02,1.6,4.44,3.02,5.8,2.41,2.3,5.35,5.35,8.01,5.27,1.74-.05,4.47-4.86,4.86-7.88,1.6-12.15,2.47-24.44,3.87-39.46,4.92,5.6,9.37,10.01,13.14,15.07,14.18,19.01,12.17,73.12-4.53,88.17-8.71,7.85-15.49,17.49-13.07,32.47,2.68,16.56,7.24,31.59,19.56,41.62,5.43,4.42,11.71,7.45,18.26,11.52,2.7-6.51,4.88-12.05,7.26-17.47,18.67-42.47,48.47-67.24,88.99-75.22,2.71-.53,7.41-3.92,7.21-5.04-.99-5.57-3.28-10.83-5.21-16.15-.14-.38-1.04-.35-1.56-.59-13.93-6.52-19.26-17.5-14.44-29.73,5.1-12.92,20.83-18.37,32.76-11.35,11.82,6.95,14.77,21.31,6.04,33.3-4.72,6.48-2.43,12.6-.38,18.03,1.07,2.84,6,4.89,9.34,5.21,10.07.97,20.23,1.3,30.33.98,2.32-.07,5.79-3.2,6.61-5.82,2.66-8.48,4.23-16.61-2.03-25.25-2.75-3.79-2.53-12.78-.76-18.13,3.32-10.04,11.44-13.72,20.55-13.76,9.11-.05,16.58,3.81,20.95,13.42,4.69,10.32.5,21.49-9.33,28.84-3.35,2.51-6.76,7.09-7.65,11.41-2.45,11.84-.34,13.88,10.28,14.74,35.39,2.86,61.74,23.83,82.18,55.99,4.97,7.83,9.24,16.34,13.19,24.93,2.26,4.93,4.86,6.2,9.42,5.37,13.28-2.43,25.07-15.95,27.91-32.65.43-2.55.49-5.21,1.13-7.67,3.68-14.05,2.44-24.81-8.52-35.83-17.45-17.54-20.02-56.97-7.79-79.63,4.4-8.15,8.89-16.23,14.94-23.79,0,3.08-.24,6.18.05,9.22.46,4.82.1,10.49,2.2,14.19,3.84,6.75,9.23,12.33,13.97,18.39,3.91-5.88,9.54-11.11,11.42-17.76,8.94-31.52,10.67-63.86,2.98-96.01-2.25-9.39-7.98-17.73-12.44-26.32-4.61-8.89-9.62-17.5-15.23-27.66,2.69.57,4.21.55,5.46,1.21,46.72,24.71,80.6,62.95,88.53,123.59,6.22,47.59,2.8,94.86-25.95,133.69-9.67,13.06-23.94,21.44-34.48,33.81-10.5,12.33-17.83,28.38-28.68,40.2-8.34,9.09-19.54,15.27-30.25,20.63-8.62,4.31-5.76,11.57-5.3,17.83.14,1.84,6.38,5.12,9.06,4.31,14.3-4.32,29.2-7.75,42.26-15.27,14.42-8.3,27.1-20.67,40.49-31.34,2.71-2.16,5.22-4.66,8.51-5.72-20.76,55.02-62.25,70.04-111.44,73.83,29.62,29.63,60.44,54.43,81.74,90.75-33.94-21.38-66.52-44.98-95.89-74.09-6.82,3.41-6.02,7.33-2.66,13.7,12.38,23.53,24.14,47.51,36.02,71.4,1.33,2.67,1.85,5.87,1.53,9.65-10.06-14.23-20.13-28.45-30.16-42.71-7.27-10.35-14.33-20.9-21.82-31.04-1.87-2.53-5.02-3.8-7.59-5.65-.39,3.46-1.69,7.18-1.01,10.33,4.76,22.31,4.7,44.36-1.01,66.44-3,11.61-7.89,21.24-17.02,27.94-5.84,4.29-11.03,9.77-17.13,14.3,18.48-34.4,24.82-71.26,19.08-111.65-10.69,3.24-20.75,7.11-31.09,9.29-39.62,8.34-78.97,4.05-118.16-4.55-4.97-1.09-10.08-1.7-14.84-3.54-8.74-3.38-12.17,2.46-13.89,10.37-3.89,17.89-2.34,35.89,3.17,52.75,5.39,16.49,12.9,32.04,19.21,47.35ZM242.16,199.41c3.49-4.24,5.5-6.68,7.5-9.12-2.31-2.51-4.42-6.59-6.98-7.02-1.97-.33-5.85,3.58-6.38,6.27-.42,2.12,2.96,5.25,5.86,9.86ZM322.76,199.66c3.69-4.63,5.81-7.31,7.94-9.98-2.27-2.32-4.49-6.4-6.81-6.48-2.36-.08-6.11,3.34-6.81,6.07-.53,2.04,2.81,5.42,5.69,10.39Z"/>
</svg>
